<svg xmlns="http://www.w3.org/2000/svg" viewBox="0 0 820 1100" width="820" height="1100" role="img" aria-label="Stackly project board on a tablet, showing in-progress and in-review project cards">
  <title>Stackly project board</title>

  <defs>
    <linearGradient id="area" x1="0" y1="0" x2="0" y2="1">
      <stop offset="0" stop-color="#6D5DF6" stop-opacity=".5"/>
      <stop offset="1" stop-color="#6D5DF6" stop-opacity="0"/>
    </linearGradient>
    <linearGradient id="brand" x1="0" y1="0" x2="1" y2="1">
      <stop offset="0" stop-color="#6D5DF6"/>
      <stop offset="1" stop-color="#B8A7FF"/>
    </linearGradient>
    <filter id="glow" x="-50%" y="-50%" width="200%" height="200%">
      <feGaussianBlur stdDeviation="6"/>
    </filter>
  </defs>
  <rect x="0" y="0" width="820" height="1100" rx="0" fill="#0E0D1A"/>

  <!-- header -->
  <rect x="0" y="0" width="820" height="84" rx="0" fill="#15142A"/>
  <line x1="0" y1="84" x2="820" y2="84" stroke="#2C2950"/>
  <rect x="28" y="26" width="32" height="32" rx="9" fill="url(#brand)"/>
  <text x="70" y="48" font-family="-apple-system, 'Segoe UI', Roboto, Helvetica, Arial, sans-serif" font-size="17" font-weight="700" fill="#FFFFFF" text-anchor="start">Stackly</text>
  <circle cx="780" cy="42" r="17" fill="url(#brand)"/>
  <text x="780" y="47" font-family="-apple-system, 'Segoe UI', Roboto, Helvetica, Arial, sans-serif" font-size="12" font-weight="700" fill="#fff" text-anchor="middle">AL</text>
  <rect x="688" y="26" width="62" height="32" rx="16" fill="#1B1B31" stroke="#2C2950"/>
  <text x="719" y="47" font-family="-apple-system, 'Segoe UI', Roboto, Helvetica, Arial, sans-serif" font-size="12" font-weight="400" fill="#B9B8CE" text-anchor="middle">Filter</text>

  <!-- title -->
  <text x="28" y="130" font-family="-apple-system, 'Segoe UI', Roboto, Helvetica, Arial, sans-serif" font-size="26" font-weight="700" fill="#FFFFFF" text-anchor="start">Projects</text>
  <text x="28" y="156" font-family="-apple-system, 'Segoe UI', Roboto, Helvetica, Arial, sans-serif" font-size="13" font-weight="400" fill="#7B7A97" text-anchor="start">6 active projects across 4 teams</text>

  <!-- columns -->
  <rect x="28" y="196" width="364" height="862" rx="16" fill="#15142A" stroke="#2C2950"/>
  <text x="50" y="226" font-family="-apple-system, 'Segoe UI', Roboto, Helvetica, Arial, sans-serif" font-size="14" font-weight="600" fill="#FFFFFF" text-anchor="start">In progress</text>
  <rect x="346" y="210" width="26" height="22" rx="11" fill="#232042"/>
  <text x="359" y="226" font-family="-apple-system, 'Segoe UI', Roboto, Helvetica, Arial, sans-serif" font-size="11" font-weight="600" fill="#B9B8CE" text-anchor="middle">3</text>
  <rect x="46" y="250" width="328" height="158" rx="13" fill="#1B1B31" stroke="#2C2950"/>
  <rect x="64" y="268" width="74" height="22" rx="11" fill="#6D5DF62b"/><text x="101" y="283" font-family="-apple-system, 'Segoe UI', Roboto, Helvetica, Arial, sans-serif" font-size="10.5" font-weight="600" fill="#6D5DF6" text-anchor="middle">Finance</text>
  <text x="64" y="316" font-family="-apple-system, 'Segoe UI', Roboto, Helvetica, Arial, sans-serif" font-size="14" font-weight="600" fill="#FFFFFF" text-anchor="start">Revenue forecasting agent</text>
  <text x="64" y="338" font-family="-apple-system, 'Segoe UI', Roboto, Helvetica, Arial, sans-serif" font-size="11" font-weight="400" fill="#7B7A97" text-anchor="start">Due Mar 28  ·  4 tasks left</text>
  <rect x="64" y="354" width="292" height="7" rx="4" fill="#232042"/>
  <rect x="64" y="354" width="239.44" height="7" rx="4" fill="#6D5DF6"/>
  <text x="64" y="386" font-family="-apple-system, 'Segoe UI', Roboto, Helvetica, Arial, sans-serif" font-size="11" font-weight="400" fill="#B9B8CE" text-anchor="start">82% complete</text>
  <circle cx="330" cy="380" r="12" fill="url(#brand)"/>
  <circle cx="348" cy="380" r="12" fill="#8A7CFF" opacity=".75"/>
  <rect x="46" y="426" width="328" height="158" rx="13" fill="#1B1B31" stroke="#2C2950"/>
  <rect x="64" y="444" width="74" height="22" rx="11" fill="#F7B9552b"/><text x="101" y="459" font-family="-apple-system, 'Segoe UI', Roboto, Helvetica, Arial, sans-serif" font-size="10.5" font-weight="600" fill="#F7B955" text-anchor="middle">Security</text>
  <text x="64" y="492" font-family="-apple-system, 'Segoe UI', Roboto, Helvetica, Arial, sans-serif" font-size="14" font-weight="600" fill="#FFFFFF" text-anchor="start">SOC 2 evidence pack</text>
  <text x="64" y="514" font-family="-apple-system, 'Segoe UI', Roboto, Helvetica, Arial, sans-serif" font-size="11" font-weight="400" fill="#7B7A97" text-anchor="start">Due Mar 28  ·  4 tasks left</text>
  <rect x="64" y="530" width="292" height="7" rx="4" fill="#232042"/>
  <rect x="64" y="530" width="186.88" height="7" rx="4" fill="#F7B955"/>
  <text x="64" y="562" font-family="-apple-system, 'Segoe UI', Roboto, Helvetica, Arial, sans-serif" font-size="11" font-weight="400" fill="#B9B8CE" text-anchor="start">64% complete</text>
  <circle cx="330" cy="556" r="12" fill="url(#brand)"/>
  <circle cx="348" cy="556" r="12" fill="#8A7CFF" opacity=".75"/>
  <rect x="46" y="602" width="328" height="158" rx="13" fill="#1B1B31" stroke="#2C2950"/>
  <rect x="64" y="620" width="74" height="22" rx="11" fill="#56B6FF2b"/><text x="101" y="635" font-family="-apple-system, 'Segoe UI', Roboto, Helvetica, Arial, sans-serif" font-size="10.5" font-weight="600" fill="#56B6FF" text-anchor="middle">RevOps</text>
  <text x="64" y="668" font-family="-apple-system, 'Segoe UI', Roboto, Helvetica, Arial, sans-serif" font-size="14" font-weight="600" fill="#FFFFFF" text-anchor="start">Lead routing v3</text>
  <text x="64" y="690" font-family="-apple-system, 'Segoe UI', Roboto, Helvetica, Arial, sans-serif" font-size="11" font-weight="400" fill="#7B7A97" text-anchor="start">Due Mar 28  ·  4 tasks left</text>
  <rect x="64" y="706" width="292" height="7" rx="4" fill="#232042"/>
  <rect x="64" y="706" width="131.4" height="7" rx="4" fill="#56B6FF"/>
  <text x="64" y="738" font-family="-apple-system, 'Segoe UI', Roboto, Helvetica, Arial, sans-serif" font-size="11" font-weight="400" fill="#B9B8CE" text-anchor="start">45% complete</text>
  <circle cx="330" cy="732" r="12" fill="url(#brand)"/>
  <circle cx="348" cy="732" r="12" fill="#8A7CFF" opacity=".75"/>
  <rect x="416" y="196" width="364" height="862" rx="16" fill="#15142A" stroke="#2C2950"/>
  <text x="438" y="226" font-family="-apple-system, 'Segoe UI', Roboto, Helvetica, Arial, sans-serif" font-size="14" font-weight="600" fill="#FFFFFF" text-anchor="start">In review</text>
  <rect x="734" y="210" width="26" height="22" rx="11" fill="#232042"/>
  <text x="747" y="226" font-family="-apple-system, 'Segoe UI', Roboto, Helvetica, Arial, sans-serif" font-size="11" font-weight="600" fill="#B9B8CE" text-anchor="middle">3</text>
  <rect x="434" y="250" width="328" height="158" rx="13" fill="#1B1B31" stroke="#2C2950"/>
  <rect x="452" y="268" width="74" height="22" rx="11" fill="#35D39A2b"/><text x="489" y="283" font-family="-apple-system, 'Segoe UI', Roboto, Helvetica, Arial, sans-serif" font-size="10.5" font-weight="600" fill="#35D39A" text-anchor="middle">Product</text>
  <text x="452" y="316" font-family="-apple-system, 'Segoe UI', Roboto, Helvetica, Arial, sans-serif" font-size="14" font-weight="600" fill="#FFFFFF" text-anchor="start">Onboarding redesign</text>
  <text x="452" y="338" font-family="-apple-system, 'Segoe UI', Roboto, Helvetica, Arial, sans-serif" font-size="11" font-weight="400" fill="#7B7A97" text-anchor="start">Due Mar 28  ·  4 tasks left</text>
  <rect x="452" y="354" width="292" height="7" rx="4" fill="#232042"/>
  <rect x="452" y="354" width="265.72" height="7" rx="4" fill="#35D39A"/>
  <text x="452" y="386" font-family="-apple-system, 'Segoe UI', Roboto, Helvetica, Arial, sans-serif" font-size="11" font-weight="400" fill="#B9B8CE" text-anchor="start">91% complete</text>
  <circle cx="718" cy="380" r="12" fill="url(#brand)"/>
  <circle cx="736" cy="380" r="12" fill="#8A7CFF" opacity=".75"/>
  <rect x="434" y="426" width="328" height="158" rx="13" fill="#1B1B31" stroke="#2C2950"/>
  <rect x="452" y="444" width="74" height="22" rx="11" fill="#F2555A2b"/><text x="489" y="459" font-family="-apple-system, 'Segoe UI', Roboto, Helvetica, Arial, sans-serif" font-size="10.5" font-weight="600" fill="#F2555A" text-anchor="middle">Data</text>
  <text x="452" y="492" font-family="-apple-system, 'Segoe UI', Roboto, Helvetica, Arial, sans-serif" font-size="14" font-weight="600" fill="#FFFFFF" text-anchor="start">Warehouse migration</text>
  <text x="452" y="514" font-family="-apple-system, 'Segoe UI', Roboto, Helvetica, Arial, sans-serif" font-size="11" font-weight="400" fill="#7B7A97" text-anchor="start">Due Mar 28  ·  4 tasks left</text>
  <rect x="452" y="530" width="292" height="7" rx="4" fill="#232042"/>
  <rect x="452" y="530" width="81.76" height="7" rx="4" fill="#F2555A"/>
  <text x="452" y="562" font-family="-apple-system, 'Segoe UI', Roboto, Helvetica, Arial, sans-serif" font-size="11" font-weight="400" fill="#B9B8CE" text-anchor="start">28% complete</text>
  <circle cx="718" cy="556" r="12" fill="url(#brand)"/>
  <circle cx="736" cy="556" r="12" fill="#8A7CFF" opacity=".75"/>
  <rect x="434" y="602" width="328" height="158" rx="13" fill="#1B1B31" stroke="#2C2950"/>
  <rect x="452" y="620" width="74" height="22" rx="11" fill="#B8A7FF2b"/><text x="489" y="635" font-family="-apple-system, 'Segoe UI', Roboto, Helvetica, Arial, sans-serif" font-size="10.5" font-weight="600" fill="#B8A7FF" text-anchor="middle">Support</text>
  <text x="452" y="668" font-family="-apple-system, 'Segoe UI', Roboto, Helvetica, Arial, sans-serif" font-size="14" font-weight="600" fill="#FFFFFF" text-anchor="start">Support triage bot</text>
  <text x="452" y="690" font-family="-apple-system, 'Segoe UI', Roboto, Helvetica, Arial, sans-serif" font-size="11" font-weight="400" fill="#7B7A97" text-anchor="start">Due Mar 28  ·  4 tasks left</text>
  <rect x="452" y="706" width="292" height="7" rx="4" fill="#232042"/>
  <rect x="452" y="706" width="292" height="7" rx="4" fill="#B8A7FF"/>
  <text x="452" y="738" font-family="-apple-system, 'Segoe UI', Roboto, Helvetica, Arial, sans-serif" font-size="11" font-weight="400" fill="#B9B8CE" text-anchor="start">100% complete</text>
  <circle cx="718" cy="732" r="12" fill="url(#brand)"/>
  <circle cx="736" cy="732" r="12" fill="#8A7CFF" opacity=".75"/>
</svg>
